# Auto-generated from blender.obj by split_blender_scene_obj.py
mtllib ../blender.mtl
o Floor10
v 3.061661 3.050000 0.856834
v 1.061661 3.050000 0.856834
v 3.061661 3.050000 2.856834
v 1.061661 3.050000 2.856834
v 3.061661 3.000000 0.856834
v 1.061661 3.000000 0.856834
v 3.061661 3.000000 2.856834
v 1.061661 3.000000 2.856834
v 3.061661 3.050000 1.356834
v 3.061661 3.050000 1.856834
v 3.061661 3.050000 2.356834
v 1.061661 3.050000 2.356834
v 1.061661 3.050000 1.856834
v 1.061661 3.050000 1.356834
v 1.061661 3.000000 1.356834
v 1.061661 3.000000 1.856834
v 1.061661 3.000000 2.356834
v 3.061661 3.000000 2.356834
v 3.061661 3.000000 1.856834
v 3.061661 3.000000 1.356834
v 2.561661 3.050000 2.856834
v 2.061661 3.050000 2.856834
v 1.561661 3.050000 2.856834
v 1.561661 3.050000 0.856834
v 2.061661 3.050000 0.856834
v 2.561661 3.050000 0.856834
v 2.561661 3.000000 0.856834
v 2.061661 3.000000 0.856834
v 1.561661 3.000000 0.856834
v 1.561661 3.000000 2.856834
v 2.061661 3.000000 2.856834
v 2.561661 3.000000 2.856834
v 2.561661 3.050000 2.356834
v 2.061661 3.050000 2.356834
v 1.561661 3.050000 2.356834
v 2.561661 3.050000 1.856834
v 2.061661 3.050000 1.856834
v 1.561661 3.050000 1.856834
v 1.561661 3.050000 1.356834
v 2.061661 3.050000 1.356834
v 2.561661 3.050000 1.356834
v 1.561661 3.000000 2.356834
v 2.061661 3.000000 2.356834
v 2.561661 3.000000 2.356834
v 1.561661 3.000000 1.856834
v 2.061661 3.000000 1.856834
v 2.561661 3.000000 1.856834
v 2.561661 3.000000 1.356834
v 2.061661 3.000000 1.356834
v 1.561661 3.000000 1.356834
vt 0.500000 0.500000
vt 0.500000 0.250000
vt 0.750000 0.250000
vt 0.750000 0.500000
vt 0.500000 0.964236
vt 0.500000 1.000000
vt 0.250000 1.000000
vt 0.250000 0.964236
vt 0.500000 1.000000
vt 0.500000 0.750000
vt 0.750000 0.750000
vt 0.750000 1.000000
vt 0.500000 0.000000
vt 0.250000 0.250000
vt 0.250000 0.000000
vt 1.000000 0.964236
vt 1.000000 1.000000
vt 0.750000 1.000000
vt 0.750000 0.964236
vt 0.000000 1.000000
vt 0.000000 0.964236
vt 0.000000 0.500000
vt 0.000000 0.250000
vt 0.250000 0.500000
vt 1.000000 0.250000
vt 1.000000 0.500000
vt 0.000000 1.000000
vt 0.000000 0.750000
vt 0.250000 0.750000
vt 0.250000 1.000000
vt 1.000000 0.750000
vt 1.000000 1.000000
vt 1.000000 0.000000
vt 0.750000 0.000000
vt 0.000000 0.000000
vn -0.0000 1.0000 -0.0000
vn -0.0000 -1.0000 -0.0000
vn -0.0000 -0.0000 -1.0000
vn -1.0000 -0.0000 -0.0000
vn -0.0000 -0.0000 1.0000
vn 1.0000 -0.0000 -0.0000
s 1
usemtl Ceiling
f 37/1/1 36/4/1 41/3/1 40/2/1
f 46/1/2 45/4/2 50/3/2 49/2/2
f 25/5/3 26/8/3 27/7/3 28/6/3
f 13/5/4 14/8/4 15/7/4 16/6/4
f 22/5/5 23/8/5 30/7/5 31/6/5
f 10/5/6 11/8/6 18/7/6 19/6/6
f 22/9/1 21/12/1 33/11/1 34/10/1
f 34/10/1 33/11/1 36/4/1 37/1/1
f 25/13/1 24/15/1 39/14/1 40/2/1
f 31/9/2 30/12/2 42/11/2 43/10/2
f 43/10/2 42/11/2 45/4/2 46/1/2
f 28/13/2 27/15/2 48/14/2 49/2/2
f 4/16/4 12/19/4 17/18/4 8/17/4
f 12/19/4 13/5/4 16/6/4 17/18/4
f 6/20/4 15/7/4 14/8/4 2/21/4
f 1/16/6 9/19/6 20/18/6 5/17/6
f 9/19/6 10/5/6 19/6/6 20/18/6
f 7/20/6 18/7/6 11/8/6 3/21/6
f 13/22/1 38/24/1 39/14/1 14/23/1
f 38/24/1 37/1/1 40/2/1 39/14/1
f 9/25/1 41/3/1 36/4/1 10/26/1
f 19/22/2 47/24/2 48/14/2 20/23/2
f 47/24/2 46/1/2 49/2/2 48/14/2
f 15/25/2 50/3/2 45/4/2 16/26/2
f 2/16/3 24/19/3 29/18/3 6/17/3
f 24/19/3 25/5/3 28/6/3 29/18/3
f 5/20/3 27/7/3 26/8/3 1/21/3
f 3/16/5 21/19/5 32/18/5 7/17/5
f 21/19/5 22/5/5 31/6/5 32/18/5
f 8/20/5 30/7/5 23/8/5 4/21/5
f 4/27/1 23/30/1 35/29/1 12/28/1
f 23/30/1 22/9/1 34/10/1 35/29/1
f 11/31/1 33/11/1 21/12/1 3/32/1
f 12/28/1 35/29/1 38/24/1 13/22/1
f 35/29/1 34/10/1 37/1/1 38/24/1
f 10/26/1 36/4/1 33/11/1 11/31/1
f 1/33/1 26/34/1 41/3/1 9/25/1
f 26/34/1 25/13/1 40/2/1 41/3/1
f 14/23/1 39/14/1 24/15/1 2/35/1
f 7/27/2 32/30/2 44/29/2 18/28/2
f 32/30/2 31/9/2 43/10/2 44/29/2
f 17/31/2 42/11/2 30/12/2 8/32/2
f 18/28/2 44/29/2 47/24/2 19/22/2
f 44/29/2 43/10/2 46/1/2 47/24/2
f 16/26/2 45/4/2 42/11/2 17/31/2
f 6/33/2 29/34/2 50/3/2 15/25/2
f 29/34/2 28/13/2 49/2/2 50/3/2
f 20/23/2 48/14/2 27/15/2 5/35/2
