# Auto-generated from blender.obj by split_blender_scene_obj.py
mtllib ../blender.mtl
o Logo
v -0.001899 0.013173 0.011717
v -0.001899 0.013402 0.011638
v -0.002174 0.013402 0.011638
v -0.002174 0.013173 0.011717
v -0.001899 0.014740 0.011067
v -0.001899 0.014954 0.010948
v -0.002174 0.014954 0.010948
v -0.002174 0.014740 0.011067
v -0.001899 0.013628 0.011555
v -0.002174 0.013628 0.011555
v -0.001899 0.013856 0.011466
v -0.002174 0.013856 0.011466
v -0.001899 0.012945 0.011794
v -0.002174 0.012945 0.011794
v -0.001899 0.014079 0.011374
v -0.002174 0.014079 0.011374
v -0.001899 0.014304 0.011275
v -0.002174 0.014304 0.011275
v -0.001899 0.014522 0.011171
v -0.002174 0.014522 0.011171
v 0.002174 0.013173 0.011717
v 0.002174 0.013402 0.011638
v 0.001899 0.013402 0.011638
v 0.001899 0.013173 0.011717
v 0.002174 0.014740 0.011067
v 0.002174 0.014954 0.010948
v 0.001899 0.014954 0.010948
v 0.001899 0.014740 0.011067
v 0.002174 0.013628 0.011555
v 0.001899 0.013628 0.011555
v 0.002174 0.013856 0.011466
v 0.001899 0.013856 0.011466
v 0.002174 0.012945 0.011794
v 0.001899 0.012945 0.011794
v 0.002174 0.014079 0.011374
v 0.001899 0.014079 0.011374
v 0.002174 0.014304 0.011275
v 0.001899 0.014304 0.011275
v 0.002174 0.014522 0.011171
v 0.001899 0.014522 0.011171
vt 0.063254 0.090937
vt 0.063254 0.184994
vt 0.000000 0.184996
vt 0.000000 0.090934
vt 0.063254 0.858732
vt 0.063254 1.000000
vt 0.000000 1.000000
vt 0.000000 0.858732
vt 0.063254 0.282935
vt 0.000000 0.282935
vt 0.063254 0.388021
vt 0.000000 0.388021
vt 0.063254 0.000001
vt 0.000000 0.000001
vt 0.063254 0.496884
vt 0.000000 0.496884
vt 0.063254 0.613006
vt 0.000000 0.613006
vt 0.063254 0.735868
vt 0.000000 0.735868
vt 1.000000 0.090935
vt 1.000000 0.184994
vt 0.936746 0.184994
vt 0.936746 0.090935
vt 1.000000 0.858730
vt 1.000000 0.999999
vt 0.936746 0.999999
vt 0.936746 0.858730
vt 1.000000 0.282937
vt 0.936746 0.282937
vt 1.000000 0.388022
vt 0.936746 0.388022
vt 1.000000 0.000000
vt 0.936746 -0.000001
vt 1.000000 0.496886
vt 0.936746 0.496886
vt 1.000000 0.613007
vt 0.936746 0.613007
vt 1.000000 0.735870
vt 0.936746 0.735867
vn -0.0000 0.3246 0.9459
vn -0.0000 0.3365 0.9417
vn -0.0000 0.4599 0.8880
vn -0.0000 0.4888 0.8724
vn -0.0000 0.3542 0.9352
vn -0.0000 0.3730 0.9278
vn -0.0000 0.3198 0.9475
vn -0.0000 0.3908 0.9205
vn -0.0000 0.4154 0.9096
vn -0.0000 0.4305 0.9026
vn -0.0000 0.3366 0.9417
s 1
usemtl Royal_typewriter_Label
f 1/1/1 2/2/2 3/3/2 4/4/1
f 5/5/3 6/6/4 7/7/4 8/8/3
f 2/2/2 9/9/5 10/10/5 3/3/2
f 9/9/5 11/11/6 12/12/6 10/10/5
f 13/13/7 1/1/1 4/4/1 14/14/7
f 11/11/6 15/15/8 16/16/8 12/12/6
f 15/15/8 17/17/9 18/18/9 16/16/8
f 17/17/9 19/19/10 20/20/10 18/18/9
f 19/19/10 5/5/3 8/8/3 20/20/10
f 21/21/1 22/22/11 23/23/2 24/24/1
f 24/24/1 23/23/2 2/2/2 1/1/1
f 25/25/3 26/26/4 27/27/4 28/28/3
f 28/28/3 27/27/4 6/6/4 5/5/3
f 22/22/11 29/29/5 30/30/5 23/23/2
f 23/23/2 30/30/5 9/9/5 2/2/2
f 29/29/5 31/31/6 32/32/6 30/30/5
f 30/30/5 32/32/6 11/11/6 9/9/5
f 33/33/7 21/21/1 24/24/1 34/34/7
f 34/34/7 24/24/1 1/1/1 13/13/7
f 31/31/6 35/35/8 36/36/8 32/32/6
f 32/32/6 36/36/8 15/15/8 11/11/6
f 35/35/8 37/37/9 38/38/9 36/36/8
f 36/36/8 38/38/9 17/17/9 15/15/8
f 37/37/9 39/39/10 40/40/10 38/38/9
f 38/38/9 40/40/10 19/19/10 17/17/9
f 39/39/10 25/25/3 28/28/3 40/40/10
f 40/40/10 28/28/3 5/5/3 19/19/10
