# Blender 5.0.1
# www.blender.org
mtllib diamond.mtl
o pCone1
v 0.005309 0.006170 0.002199
v 0.004063 0.006170 0.004063
v 0.005254 0.005703 0.003511
v 0.002199 0.006170 0.005309
v 0.003511 0.005703 0.005254
v 0.000000 0.006170 0.005746
v 0.001233 0.005703 0.006198
v -0.002199 0.006170 0.005309
v -0.001233 0.005703 0.006198
v -0.004063 0.006170 0.004063
v -0.003511 0.005703 0.005254
v -0.005309 0.006170 0.002199
v -0.005254 0.005703 0.003511
v -0.005746 0.006170 0.000000
v -0.006198 0.005703 0.001233
v -0.005309 0.006170 -0.002199
v -0.006198 0.005703 -0.001233
v -0.004063 0.006170 -0.004063
v -0.005254 0.005703 -0.003511
v -0.002199 0.006170 -0.005309
v -0.003511 0.005703 -0.005254
v -0.000000 0.006170 -0.005746
v -0.001233 0.005703 -0.006198
v 0.002199 0.006170 -0.005309
v 0.001233 0.005703 -0.006198
v 0.004063 0.006170 -0.004063
v 0.003511 0.005703 -0.005254
v 0.005309 0.006170 -0.002199
v 0.005254 0.005703 -0.003511
v 0.005746 0.006170 -0.000000
v 0.006198 0.005703 -0.001233
v 0.006198 0.005703 0.001233
v 0.009708 0.002980 0.001931
v 0.008956 0.003375 0.003710
v 0.008230 0.002980 0.005499
v 0.009239 0.002668 0.003827
v 0.006855 0.003375 0.006854
v 0.005499 0.002980 0.008230
v 0.007071 0.002668 0.007071
v 0.003710 0.003375 0.008956
v 0.001931 0.002980 0.009708
v 0.003827 0.002668 0.009239
v 0.001407 -0.004364 0.001407
v 0.000000 0.003375 0.009694
v -0.001931 0.002980 0.009708
v 0.000000 0.002668 0.010000
v -0.003710 0.003375 0.008956
v -0.005499 0.002980 0.008230
v -0.003827 0.002668 0.009239
v 0.000000 -0.004364 0.001990
v -0.006854 0.003375 0.006854
v -0.008230 0.002980 0.005499
v -0.007071 0.002668 0.007071
v -0.008956 0.003375 0.003710
v -0.009708 0.002980 0.001931
v -0.009239 0.002668 0.003827
v -0.001407 -0.004364 0.001407
v -0.009694 0.003375 0.000000
v -0.009708 0.002980 -0.001931
v -0.010000 0.002668 0.000000
v -0.008956 0.003375 -0.003710
v -0.008230 0.002980 -0.005499
v -0.009239 0.002668 -0.003827
v -0.001990 -0.004364 0.000000
v -0.006855 0.003375 -0.006855
v -0.005499 0.002980 -0.008230
v -0.007071 0.002668 -0.007071
v -0.003710 0.003375 -0.008956
v -0.001931 0.002980 -0.009708
v -0.003827 0.002668 -0.009239
v -0.001407 -0.004364 -0.001407
v -0.000000 0.003375 -0.009694
v 0.001931 0.002980 -0.009708
v -0.000000 0.002668 -0.010000
v 0.003710 0.003375 -0.008956
v 0.005499 0.002980 -0.008230
v 0.003827 0.002668 -0.009239
v -0.000000 -0.004364 -0.001990
v 0.006855 0.003375 -0.006855
v 0.008230 0.002980 -0.005499
v 0.007071 0.002668 -0.007071
v 0.008956 0.003375 -0.003710
v 0.009708 0.002980 -0.001931
v 0.009239 0.002668 -0.003827
v 0.001407 -0.004364 -0.001407
v 0.009694 0.003375 -0.000000
v 0.010000 0.002668 -0.000000
v 0.001990 -0.004364 0.000000
v 0.001838 -0.004364 0.000761
v 0.000000 -0.006170 0.000000
v 0.000761 -0.004364 0.001838
v -0.000761 -0.004364 0.001838
v -0.001838 -0.004364 0.000761
v -0.001838 -0.004364 -0.000761
v -0.000761 -0.004364 -0.001838
v 0.000761 -0.004364 -0.001838
v 0.001838 -0.004364 -0.000761
v -0.004396 0.004527 0.006578
v -0.002806 0.005107 0.006773
v -0.001543 0.004527 0.007760
v 0.001544 0.004527 0.007760
v 0.002806 0.005107 0.006773
v 0.004396 0.004527 0.006578
v 0.006578 0.004527 0.004396
v 0.006773 0.005107 0.002806
v 0.007760 0.004527 0.001543
v 0.007760 0.004527 -0.001544
v 0.006773 0.005107 -0.002806
v 0.006578 0.004527 -0.004396
v 0.004396 0.004527 -0.006578
v 0.002806 0.005107 -0.006773
v 0.001543 0.004527 -0.007760
v -0.001543 0.004527 -0.007760
v -0.002806 0.005107 -0.006773
v -0.004396 0.004527 -0.006578
v -0.006578 0.004527 -0.004396
v -0.006773 0.005107 -0.002806
v -0.007760 0.004527 -0.001544
v -0.007760 0.004527 0.001543
v -0.006773 0.005107 0.002806
v -0.006578 0.004527 0.004396
vn 0.4691 0.8256 0.3134
vn 0.3134 0.8256 0.4691
vn 0.1101 0.8256 0.5533
vn -0.1101 0.8256 0.5533
vn -0.3134 0.8256 0.4691
vn -0.4691 0.8256 0.3134
vn -0.5533 0.8256 0.1101
vn -0.5533 0.8256 -0.1101
vn -0.4691 0.8256 -0.3134
vn -0.3134 0.8256 -0.4691
vn -0.1101 0.8256 -0.5533
vn 0.1101 0.8256 -0.5533
vn 0.3134 0.8256 -0.4691
vn 0.4691 0.8256 -0.3134
vn 0.5533 0.8256 -0.1101
vn 0.5533 0.8256 0.1101
vn 0.8481 0.3968 0.3513
vn 0.8479 0.3971 0.3512
vn 0.8479 0.3972 0.3512
vn 0.6489 0.3972 0.6489
vn 0.6490 0.3971 0.6490
vn 0.3513 0.3968 0.8480
vn 0.3512 0.3971 0.8479
vn 0.3512 0.3972 0.8479
vn 0.5643 -0.7344 0.3770
vn 0.5643 -0.7344 0.3771
vn -0.0000 0.3968 0.9179
vn -0.0000 0.3971 0.9178
vn -0.0000 0.3972 0.9177
vn 0.3771 -0.7344 0.5642
vn 0.3770 -0.7344 0.5643
vn 0.3771 -0.7344 0.5643
vn -0.3512 0.3971 0.8479
vn -0.3513 0.3968 0.8480
vn -0.3512 0.3972 0.8479
vn 0.1325 -0.7344 0.6656
vn 0.1324 -0.7344 0.6656
vn -0.6491 0.3968 0.6491
vn -0.6490 0.3971 0.6490
vn -0.6489 0.3972 0.6489
vn -0.1324 -0.7344 0.6657
vn -0.1324 -0.7344 0.6656
vn -0.8479 0.3971 0.3512
vn -0.8478 0.3973 0.3512
vn -0.8479 0.3972 0.3512
vn -0.3771 -0.7344 0.5643
vn -0.3770 -0.7344 0.5643
vn -0.9178 0.3971 -0.0000
vn -0.9177 0.3972 -0.0000
vn -0.5643 -0.7344 0.3770
vn -0.5643 -0.7344 0.3771
vn -0.8479 0.3971 -0.3512
vn -0.8479 0.3972 -0.3512
vn -0.6657 -0.7344 0.1323
vn -0.6656 -0.7344 0.1324
vn -0.6489 0.3972 -0.6489
vn -0.6490 0.3971 -0.6489
vn -0.6657 -0.7344 -0.1324
vn -0.6656 -0.7344 -0.1324
vn -0.3512 0.3971 -0.8479
vn -0.3512 0.3972 -0.8479
vn -0.5643 -0.7344 -0.3770
vn -0.5643 -0.7344 -0.3771
vn -0.0000 0.3968 -0.9179
vn -0.0000 0.3971 -0.9178
vn -0.0000 0.3972 -0.9177
vn -0.3771 -0.7344 -0.5642
vn -0.3770 -0.7344 -0.5643
vn -0.3771 -0.7344 -0.5643
vn 0.3512 0.3972 -0.8479
vn 0.3512 0.3971 -0.8479
vn -0.1324 -0.7344 -0.6657
vn -0.1324 -0.7344 -0.6656
vn 0.6489 0.3972 -0.6489
vn 0.6490 0.3971 -0.6490
vn 0.1323 -0.7344 -0.6657
vn 0.1324 -0.7344 -0.6656
vn 0.8480 0.3968 -0.3513
vn 0.8479 0.3971 -0.3512
vn 0.8479 0.3972 -0.3512
vn 0.3771 -0.7344 -0.5642
vn 0.3771 -0.7344 -0.5643
vn 0.3770 -0.7344 -0.5643
vn 0.9178 0.3971 -0.0000
vn 0.9177 0.3972 -0.0000
vn 0.5643 -0.7344 -0.3771
vn 0.5643 -0.7344 -0.3770
vn 0.6656 -0.7344 0.1325
vn 0.6656 -0.7344 0.1324
vn 0.6657 -0.7344 -0.1324
vn 0.6656 -0.7344 -0.1324
vn 0.5648 -0.7339 0.3774
vn 0.3774 -0.7339 0.5648
vn 0.1325 -0.7339 0.6662
vn -0.1325 -0.7339 0.6662
vn -0.3774 -0.7339 0.5648
vn -0.5648 -0.7339 0.3774
vn -0.6662 -0.7339 0.1325
vn -0.6662 -0.7339 -0.1325
vn -0.5648 -0.7339 -0.3774
vn -0.3774 -0.7339 -0.5648
vn -0.1325 -0.7339 -0.6662
vn 0.1325 -0.7339 -0.6662
vn 0.3774 -0.7339 -0.5648
vn 0.5648 -0.7339 -0.3774
vn 0.6662 -0.7339 0.1325
vn 0.6662 -0.7339 -0.1325
vn -0.1301 -0.7452 0.6541
vn 0.1301 -0.7452 0.6541
vn 0.3705 -0.7452 0.5545
vn 0.5545 -0.7452 0.3705
vn 0.6541 -0.7452 0.1301
vn 0.6541 -0.7452 -0.1301
vn 0.5545 -0.7452 -0.3705
vn 0.3705 -0.7452 -0.5545
vn 0.1301 -0.7452 -0.6541
vn -0.1301 -0.7452 -0.6541
vn -0.3705 -0.7452 -0.5545
vn -0.5545 -0.7452 -0.3705
vn -0.6541 -0.7452 -0.1301
vn -0.6541 -0.7452 0.1301
vn -0.5545 -0.7452 0.3705
vn -0.3705 -0.7452 0.5545
vn -0.3413 0.7890 0.5108
vn -0.3514 0.7988 0.4883
vn -0.0968 0.7988 0.5938
vn -0.1199 0.7890 0.6025
vn -0.1198 0.7890 0.6025
vn 0.1199 0.7890 0.6025
vn 0.1198 0.7890 0.6025
vn 0.0968 0.7988 0.5938
vn 0.3514 0.7988 0.4883
vn 0.3413 0.7890 0.5108
vn 0.5108 0.7890 0.3413
vn 0.4883 0.7988 0.3514
vn 0.5938 0.7988 0.0968
vn 0.6025 0.7890 0.1198
vn 0.6025 0.7890 0.1199
vn 0.6025 0.7890 -0.1199
vn 0.6025 0.7890 -0.1198
vn 0.5938 0.7988 -0.0968
vn 0.4883 0.7988 -0.3514
vn 0.5108 0.7890 -0.3413
vn 0.3413 0.7890 -0.5108
vn 0.3514 0.7988 -0.4883
vn 0.0968 0.7988 -0.5938
vn 0.1199 0.7890 -0.6025
vn 0.1198 0.7890 -0.6025
vn -0.1199 0.7890 -0.6025
vn -0.1198 0.7890 -0.6025
vn -0.0968 0.7988 -0.5938
vn -0.3514 0.7988 -0.4883
vn -0.3413 0.7890 -0.5108
vn -0.5108 0.7890 -0.3413
vn -0.4883 0.7988 -0.3514
vn -0.5938 0.7988 -0.0968
vn -0.6025 0.7890 -0.1199
vn -0.6025 0.7890 -0.1198
vn -0.6025 0.7890 0.1199
vn -0.6025 0.7890 0.1198
vn -0.5938 0.7988 0.0968
vn -0.4883 0.7988 0.3514
vn -0.5108 0.7890 0.3413
vn -0.4120 0.8127 -0.4120
vn -0.5827 0.8127 -0.0000
vn -0.4120 0.8127 0.4120
vn -0.0000 0.8127 0.5827
vn 0.4120 0.8127 0.4120
vn 0.5827 0.8127 -0.0000
vn 0.5826 0.8127 -0.0000
vn 0.4120 0.8127 -0.4120
vn -0.0000 0.8127 -0.5827
vn -0.0000 1.0000 -0.0000
vt 0.382152 0.831975
vt 0.419130 0.822744
vt 0.405544 0.847177
vt 0.449753 0.800524
vt 0.448105 0.829764
vt 0.469382 0.767841
vt 0.477033 0.794743
vt 0.475326 0.730482
vt 0.494826 0.752353
vt 0.466055 0.693587
vt 0.490500 0.707121
vt 0.443878 0.662856
vt 0.473095 0.664589
vt 0.411200 0.643459
vt 0.438046 0.635667
vt 0.373804 0.637273
vt 0.395680 0.617921
vt 0.336961 0.646796
vt 0.350447 0.622241
vt 0.306172 0.668746
vt 0.307956 0.639644
vt 0.286806 0.701633
vt 0.279016 0.674668
vt 0.280618 0.738824
vt 0.261267 0.717017
vt 0.290088 0.775866
vt 0.265555 0.762241
vt 0.312104 0.806435
vt 0.282946 0.804757
vt 0.344885 0.826035
vt 0.317949 0.833699
vt 0.360334 0.851478
vt 0.344393 0.973321
vt 0.389492 0.961064
vt 0.424677 0.980582
vt 0.385827 0.991411
vt 0.437983 0.968053
vt 0.475467 0.939915
vt 0.515343 0.945389
vt 0.483066 0.969588
vt 0.523020 0.927172
vt 0.546236 0.886610
vt 0.584909 0.875511
vt 0.565112 0.910649
vt 0.442445 0.280315
vt 0.722624 0.204748
vt 0.732693 0.234189
vt 0.724599 0.265627
vt 0.585472 0.857240
vt 0.592063 0.810840
vt 0.624109 0.786488
vt 0.618428 0.826427
vt 0.729788 0.295365
vt 0.717390 0.324256
vt 0.616672 0.768183
vt 0.604389 0.723098
vt 0.623852 0.687885
vt 0.634734 0.726719
vt 0.436450 0.305185
vt 0.719637 0.354287
vt 0.704459 0.380722
vt 0.611350 0.674577
vt 0.583188 0.637124
vt 0.588595 0.597241
vt 0.612843 0.629480
vt 0.701185 0.410036
vt 0.681680 0.433191
vt 0.570414 0.589568
vt 0.529846 0.566396
vt 0.518689 0.527740
vt 0.553853 0.547487
vt 0.422035 0.327472
vt 0.676403 0.462796
vt 0.655464 0.483770
vt 0.500466 0.527179
vt 0.454079 0.520626
vt 0.429693 0.488606
vt 0.469635 0.494247
vt 0.644591 0.511821
vt 0.619652 0.528848
vt 0.411442 0.496036
vt 0.366384 0.508338
vt 0.331161 0.488889
vt 0.369989 0.477992
vt 0.402167 0.345698
vt 0.610153 0.560170
vt 0.587886 0.578986
vt 0.317900 0.501373
vt 0.280472 0.529531
vt 0.240587 0.524121
vt 0.272826 0.499875
vt 0.188868 0.554717
vt 0.166711 0.534314
vt 0.159706 0.502335
vt 0.232948 0.542269
vt 0.209779 0.582819
vt 0.171114 0.593952
vt 0.190881 0.558801
vt 0.384307 0.325707
vt 0.137082 0.481703
vt 0.130535 0.451632
vt 0.170568 0.612153
vt 0.163996 0.658526
vt 0.131950 0.682883
vt 0.137627 0.642946
vt 0.111974 0.427949
vt 0.110760 0.397524
vt 0.139385 0.701124
vt 0.151656 0.746191
vt 0.132162 0.781390
vt 0.121310 0.742549
vt 0.372420 0.302006
vt 0.094608 0.371657
vt 0.096204 0.341705
vt 0.144658 0.794658
vt 0.172790 0.832118
vt 0.167325 0.871997
vt 0.143120 0.839726
vt 0.084848 0.313492
vt 0.091938 0.284090
vt 0.185505 0.879650
vt 0.226052 0.902864
vt 0.237135 0.941543
vt 0.202006 0.921733
vt 0.368651 0.276432
vt 0.084533 0.254041
vt 0.095405 0.225684
vt 0.255382 0.942091
vt 0.301775 0.948703
vt 0.326096 0.980775
vt 0.286163 0.975056
vt 0.093360 0.194575
vt 0.109494 0.168264
vt 0.374886 0.252173
vt 0.131640 0.112413
vt 0.139554 0.080913
vt 0.163612 0.060211
vt 0.112006 0.136503
vt 0.441261 0.268122
vt 0.409568 0.277985
vt 0.440616 0.292889
vt 0.430186 0.316782
vt 0.412905 0.337360
vt 0.392369 0.336346
vt 0.377462 0.314141
vt 0.369617 0.289187
vt 0.370743 0.263914
vt 0.381539 0.241902
vt 0.542452 0.692619
vt 0.523807 0.727169
vt 0.545970 0.759755
vt 0.524015 0.821240
vt 0.486395 0.832465
vt 0.479026 0.871182
vt 0.420037 0.899135
vt 0.385508 0.880478
vt 0.352907 0.902631
vt 0.291439 0.880680
vt 0.280224 0.843077
vt 0.241514 0.835682
vt 0.213582 0.776711
vt 0.232241 0.742198
vt 0.210092 0.709607
vt 0.232023 0.648164
vt 0.269620 0.636944
vt 0.276985 0.598238
vt 0.335935 0.570280
vt 0.370469 0.588920
vt 0.403040 0.566750
vt 0.464515 0.588664
vt 0.475767 0.626269
vt 0.514479 0.633629
s 1
usemtl DiamondOutside
f 1/1/1 2/2/1 3/3/1
f 2/2/2 4/4/2 5/5/2
f 4/4/3 6/6/3 7/7/3
f 6/6/4 8/8/4 9/9/4
f 8/8/5 10/10/5 11/11/5
f 10/10/6 12/12/6 13/13/6
f 12/12/7 14/14/7 15/15/7
f 14/14/8 16/16/8 17/17/8
f 16/16/9 18/18/9 19/19/9
f 18/18/10 20/20/10 21/21/10
f 20/20/11 22/22/11 23/23/11
f 22/22/12 24/24/12 25/25/12
f 24/24/13 26/26/13 27/27/13
f 26/26/14 28/28/14 29/29/14
f 28/28/15 30/30/15 31/31/15
f 30/30/16 1/1/16 32/32/16
f 33/33/17 34/34/18 35/35/17
f 35/35/17 36/36/19 33/33/17
f 35/37/20 37/38/21 38/39/20
f 38/39/20 39/40/20 35/37/20
f 38/41/22 40/42/23 41/43/22
f 41/43/22 42/44/24 38/41/22
f 43/45/25 36/46/26 35/47/26
f 35/47/26 39/48/25 43/45/25
f 41/49/27 44/50/28 45/51/27
f 45/51/27 46/52/29 41/49/27
f 43/45/30 39/48/31 38/53/31
f 38/53/31 42/54/32 43/45/30
f 45/55/33 47/56/33 48/57/34
f 48/57/34 49/58/35 45/55/33
f 50/59/36 42/54/37 41/60/37
f 41/60/37 46/61/37 50/59/36
f 48/62/38 51/63/39 52/64/38
f 52/64/38 53/65/40 48/62/38
f 50/59/41 46/61/42 45/66/42
f 45/66/42 49/67/42 50/59/41
f 52/68/43 54/69/43 55/70/44
f 55/70/44 56/71/45 52/68/43
f 57/72/46 49/67/46 48/73/47
f 48/73/47 53/74/47 57/72/46
f 55/75/48 58/76/48 59/77/49
f 59/77/49 60/78/49 55/75/48
f 57/72/50 53/74/50 52/79/51
f 52/79/51 56/80/51 57/72/50
f 59/81/52 61/82/52 62/83/53
f 62/83/53 63/84/53 59/81/52
f 64/85/54 56/80/55 55/86/55
f 55/86/55 60/87/55 64/85/54
f 62/88/56 65/89/57 66/90/56
f 66/90/56 67/91/56 62/88/56
f 64/85/58 60/92/59 59/93/59
f 59/93/59 63/94/59 64/85/58
f 66/95/60 68/96/60 69/97/61
f 69/97/61 70/98/61 66/95/60
f 71/99/62 63/94/63 62/100/63
f 62/100/63 67/101/62 71/99/62
f 69/102/64 72/103/65 73/104/64
f 73/104/64 74/105/66 69/102/64
f 71/99/67 67/101/68 66/106/69
f 66/106/69 70/107/69 71/99/67
f 73/108/70 75/109/71 76/110/71
f 76/110/71 77/111/70 73/108/70
f 78/112/72 70/107/73 69/113/73
f 69/113/73 74/114/73 78/112/72
f 76/115/74 79/116/75 80/117/74
f 80/117/74 81/118/74 76/115/74
f 78/112/76 74/114/77 73/119/77
f 73/119/77 77/120/77 78/112/76
f 80/121/78 82/122/79 83/123/80
f 83/123/80 84/124/80 80/121/78
f 85/125/81 77/120/82 76/126/83
f 76/126/83 81/127/83 85/125/81
f 83/128/84 86/129/84 33/130/84
f 33/130/84 87/131/85 83/128/84
f 85/125/86 81/127/87 80/132/86
f 80/132/86 84/133/86 85/125/86
f 88/134/88 87/135/89 33/136/89
f 33/136/89 36/137/89 88/134/88
f 88/134/90 84/133/91 83/138/91
f 83/138/91 87/135/91 88/134/90
f 89/139/92 43/45/92 90/140/92
f 43/45/93 91/141/93 90/140/93
f 91/141/94 50/59/94 90/140/94
f 50/59/95 92/142/95 90/140/95
f 92/142/96 57/72/96 90/140/96
f 57/72/97 93/143/97 90/140/97
f 93/143/98 64/85/98 90/140/98
f 64/85/99 94/144/99 90/140/99
f 94/144/100 71/99/100 90/140/100
f 71/99/101 95/145/101 90/140/101
f 95/145/102 78/112/102 90/140/102
f 78/112/103 96/146/103 90/140/103
f 96/146/104 85/125/104 90/140/104
f 85/125/105 97/147/105 90/140/105
f 88/134/106 89/148/106 90/140/106
f 97/147/107 88/134/107 90/140/107
f 50/59/108 49/67/108 92/142/108
f 42/54/109 50/59/109 91/141/109
f 43/45/110 42/54/110 91/141/110
f 36/46/111 43/45/111 89/139/111
f 88/134/112 36/137/112 89/148/112
f 84/133/113 88/134/113 97/147/113
f 85/125/114 84/133/114 97/147/114
f 77/120/115 85/125/115 96/146/115
f 78/112/116 77/120/116 96/146/116
f 70/107/117 78/112/117 95/145/117
f 71/99/118 70/107/118 95/145/118
f 63/94/119 71/99/119 94/144/119
f 64/85/120 63/94/120 94/144/120
f 56/80/121 64/85/121 93/143/121
f 57/72/122 56/80/122 93/143/122
f 49/67/123 57/72/123 92/142/123
f 48/62/124 47/56/124 98/149/124
f 98/149/124 51/63/124 48/62/124
f 99/150/125 98/149/125 47/56/125
f 100/151/126 99/150/126 47/56/126
f 45/55/127 44/50/127 100/151/127
f 100/151/127 47/56/128 45/55/127
f 41/49/129 40/42/130 101/152/129
f 101/152/129 44/50/129 41/49/129
f 102/153/131 101/152/131 40/42/131
f 103/154/132 102/153/132 40/42/132
f 38/41/133 37/38/133 103/154/133
f 103/154/133 40/42/133 38/41/133
f 35/37/134 34/34/134 104/155/134
f 104/155/134 37/38/134 35/37/134
f 105/156/135 104/155/135 34/34/135
f 106/157/136 105/156/136 34/34/136
f 33/33/137 86/129/138 106/157/138
f 106/157/138 34/34/137 33/33/137
f 83/128/139 82/122/140 107/158/139
f 107/158/139 86/129/139 83/128/139
f 108/159/141 107/158/141 82/122/141
f 109/160/142 108/159/142 82/122/142
f 80/121/143 79/116/143 109/160/143
f 109/160/143 82/122/143 80/121/143
f 76/115/144 75/109/144 110/161/144
f 110/161/144 79/116/144 76/115/144
f 111/162/145 110/161/145 75/109/145
f 112/163/146 111/162/146 75/109/146
f 73/108/147 72/103/147 112/163/147
f 112/163/147 75/109/148 73/108/147
f 69/102/149 68/96/150 113/164/149
f 113/164/149 72/103/149 69/102/149
f 114/165/151 113/164/151 68/96/151
f 115/166/152 114/165/152 68/96/152
f 66/95/153 65/89/153 115/166/153
f 115/166/153 68/96/153 66/95/153
f 62/88/154 61/82/154 116/167/154
f 116/167/154 65/89/154 62/88/154
f 117/168/155 116/167/155 61/82/155
f 118/169/156 117/168/156 61/82/156
f 59/81/157 58/76/157 118/169/157
f 118/169/157 61/82/158 59/81/157
f 55/75/159 54/69/160 119/170/159
f 119/170/159 58/76/159 55/75/159
f 120/171/161 119/170/161 54/69/161
f 121/172/162 120/171/162 54/69/162
f 52/68/163 51/63/163 121/172/163
f 121/172/163 54/69/163 52/68/163
f 12/12/7 15/15/7 120/171/7
f 120/171/6 13/13/6 12/12/6
f 8/8/5 11/11/5 99/150/5
f 99/150/4 9/9/4 8/8/4
f 4/4/3 7/7/3 102/153/3
f 102/153/2 5/5/2 4/4/2
f 1/1/1 3/3/1 105/156/1
f 105/156/16 32/32/16 1/1/16
f 28/28/15 31/31/15 108/159/15
f 108/159/14 29/29/14 28/28/14
f 24/24/13 27/27/13 111/162/13
f 111/162/12 25/25/12 24/24/12
f 20/20/11 23/23/11 114/165/11
f 114/165/10 21/21/10 20/20/10
f 16/16/9 19/19/9 117/168/9
f 117/168/8 17/17/8 16/16/8
f 19/19/164 18/18/164 21/21/164
f 19/19/164 21/21/164 114/165/164
f 19/19/164 114/165/164 115/166/164
f 19/19/164 115/166/164 65/89/164
f 19/19/164 65/89/164 116/167/164
f 19/19/164 116/167/164 117/168/164
f 15/15/165 14/14/165 17/17/165
f 15/15/165 17/17/165 117/168/165
f 15/15/165 117/168/165 118/169/165
f 15/15/165 118/169/165 58/76/165
f 15/15/165 58/76/165 119/170/165
f 15/15/165 119/170/165 120/171/165
f 11/11/166 10/10/166 13/13/166
f 11/11/166 13/13/166 120/171/166
f 11/11/166 120/171/166 121/172/166
f 11/11/166 121/172/166 51/63/166
f 11/11/166 51/63/166 98/149/166
f 11/11/166 98/149/166 99/150/166
f 102/153/167 7/7/167 6/6/167
f 102/153/167 6/6/167 9/9/167
f 102/153/167 9/9/167 99/150/167
f 102/153/167 99/150/167 100/151/167
f 100/151/167 44/50/167 101/152/167
f 100/151/167 101/152/167 102/153/167
f 3/3/168 2/2/168 5/5/168
f 3/3/168 5/5/168 102/153/168
f 3/3/168 102/153/168 103/154/168
f 3/3/168 103/154/168 37/38/168
f 3/3/168 37/38/168 104/155/168
f 3/3/168 104/155/168 105/156/168
f 108/159/169 31/31/170 30/30/169
f 108/159/169 30/30/169 32/32/169
f 108/159/169 32/32/169 105/156/169
f 108/159/169 105/156/169 106/157/170
f 106/157/170 86/129/169 107/158/169
f 106/157/170 107/158/169 108/159/169
f 27/27/171 26/26/171 29/29/171
f 27/27/171 29/29/171 108/159/171
f 27/27/171 108/159/171 109/160/171
f 27/27/171 109/160/171 79/116/171
f 27/27/171 79/116/171 110/161/171
f 27/27/171 110/161/171 111/162/171
f 23/23/172 22/22/172 25/25/172
f 23/23/172 25/25/172 111/162/172
f 23/23/172 111/162/172 112/163/172
f 23/23/172 112/163/172 72/103/172
f 23/23/172 72/103/172 113/164/172
f 23/23/172 113/164/172 114/165/172
f 4/4/173 2/2/173 1/1/173
f 4/4/173 1/1/173 30/30/173
f 4/4/173 30/30/173 28/28/173
f 4/4/173 28/28/173 26/26/173
f 4/4/173 26/26/173 24/24/173
f 4/4/173 24/24/173 22/22/173
f 4/4/173 22/22/173 20/20/173
f 4/4/173 20/20/173 18/18/173
f 4/4/173 18/18/173 16/16/173
f 4/4/173 16/16/173 14/14/173
f 4/4/173 14/14/173 12/12/173
f 4/4/173 12/12/173 10/10/173
f 4/4/173 10/10/173 8/8/173
f 8/8/173 6/6/173 4/4/173
